
        <svg xmlns="http://www.w3.org/2000/svg" xmlns:xlink="http://www.w3.org/1999/xlink" version="1.1" width="3179.1044776119397" height="735.2238805970148" viewBox="0 0 3179.1044776119397 735.2238805970148">
			
			<g transform="scale(8.955223880597014) translate(10, 10)">
				<defs id="SvgjsDefs2187"/><g id="SvgjsG2188" featureKey="symbolContainer" transform="matrix(0.9,0,0,0.9,0,0)" fill="#000"><rect xmlns="http://www.w3.org/2000/svg" width="128" height="69" rx="10" ry="10"/></g><g id="SvgjsG2189" featureKey="monogramFeature-0" transform="matrix(0.6086435148483693,0,0,0.6086435148483693,12.171731847503562,6.076467893163024)" fill="#ffffff"><path d="M39.223 43.156 c0.89676 1.6423 1.6156 3.8035 1.4592 6.1638 c-0.10553 2.344 -1.1663 4.5272 -2.4858 6.0444 c-1.3315 1.4948 -2.7978 2.3974 -4.1751 3.0387 c-1.3849 0.62352 -2.7272 0.99852 -4.0505 1.2458 c-0.6585 0.12264 -1.3271 0.20719 -1.9722 0.2625 c-0.61014 0.040664 -1.2171 0.075642 -1.8235 0.080742 c-4.8456 0.071838 -9.5484 -1.0334 -13.688 -3.1244 c-0.1824 -0.099138 -0.31271 -0.24088 -0.41824 -0.40166 c-0.67818 -0.16588 -1.1905 -0.40166 -1.282 -0.69342 c-1.2559 -8.8482 -3.2592 -17.44 -5.9318 -25.656 c-0.012715 -0.007617 -0.026719 -0.015235 -0.039434 -0.023496 c-1.3671 -0.8586 -2.0955 -1.8152 -1.7084 -2.3744 c0.95844 -1.6207 2.0497 -2.8747 3.1816 -3.9456 c1.1364 -1.0664 2.3249 -1.9448 3.5744 -2.6999 c1.2508 -0.75252 2.562 -1.3805 3.9775 -1.88 l1.0843 -0.34705 l1.1332 -0.28981 c0.3934 -0.082614 0.7932 -0.15568 1.1885 -0.22494 l0.9273 -0.10805 c1.2298 -0.12328 2.4768 -0.17602 3.7562 -0.14045 c0.32221 0.01336 0.63558 0.015879 0.96546 0.044473 l1.0322 0.084552 c0.8415 0.07752 1.6703 0.20338 2.4826 0.37242 c3.2522 0.67374 6.162 2.2131 8.2464 4.4503 l0.44807 0.52564 l0.4125 0.55231 c0.27263 0.36862 0.5485 0.73152 0.76206 1.1377 c0.22688 0.39662 0.45316 0.78942 0.62154 1.2134 c0.18369 0.41502 0.35977 0.8307 0.47737 1.2692 c0.53449 1.7256 0.6813 3.5459 0.47543 5.3108 c-0.24152 2.0917 -0.98388 4.0969 -2.0923 5.8486 c0.079452 0.07119 0.164 0.13541 0.24152 0.20848 c1.1936 1.0983 2.3046 2.3911 3.2198 4.0556 z M22.661 31.762 c-0.50783 0.1176 -1.034 0.27263 -1.559 0.45123 c-0.029883 0.25424 -0.064218 0.50654 -0.095334 0.7608 c2.1012 0.22564 4.1173 0.66672 6.105 1.2896 c0.027305 -0.35209 0.003164 -0.69594 -0.07248 -1.0137 c-0.19828 -0.88218 -0.82752 -1.5699 -1.5655 -1.8076 c-0.6063 -0.2059 -1.2152 -0.14678 -1.6715 0.0095508 c-0.11566 0.039434 -0.22242 0.085194 -0.32092 0.13477 c-0.050215 0.02543 -0.24727 0.055957 -0.37693 0.080742 c-0.14045 0.020332 -0.29619 0.064158 -0.44303 0.094686 z M29.241 49.752 c0.13858 -0.11947 0.24545 -0.23625 0.33633 -0.34811 c-0.083262 0.029883 -0.16078 0.061638 -0.2625 0.099786 l-0.089004 0.033047 l-0.01207 0.0025195 l-0.019043 0.0050977 c-0.035566 0 -0.069258 -0.010195 -0.11883 -0.031816 c-0.18814 -0.088362 -0.52693 -0.31019 -0.95466 -0.49324 c-0.42392 -0.20273 -0.86502 -0.30381 -1.4624 -0.46142 c-0.59678 -0.14361 -1.2889 -0.24914 -1.99 -0.33047 c-1.4326 -0.12457 -2.9693 -0.1176 -4.3556 0.12328 c-0.70164 0.095976 -1.3366 0.28412 -1.9111 0.46465 c-0.041953 0.01459 -0.078162 0.031113 -0.11818 0.046348 c-0.239 1.0715 -0.49008 2.1374 -0.7494 3.2001 c2.6255 0.2809 5.2587 0.10418 7.7016 -0.50977 c0.42263 -0.10108 0.837 -0.22629 1.2476 -0.35021 c0.37242 -0.12586 0.71628 -0.25869 1.0538 -0.41314 c0.66924 -0.30381 1.2718 -0.6699 1.7033 -1.0366 z M88.132 51.6678 c0.48557 -0.014004 -10.207 13.804 -10.45 13.211 c-1.561 -2.1736 -2.8531 -4.2984 -4.0619 -6.3774 c-1.0481 0.34892 -2.1286 0.61332 -3.2351 0.7773 c-1.5368 0.20977 -3.1346 0.2492 -4.6696 0.059824 c-1.5323 -0.19957 -3.0151 -0.57264 -4.4108 -1.1097 c-1.3874 -0.5536 -2.6923 -1.247 -3.9005 -2.0618 c-1.1949 -0.83388 -2.2925 -1.7821 -3.2834 -2.8295 c-0.97434 -1.0659 -1.8349 -2.2303 -2.5678 -3.4779 c-0.71694 -1.2604 -1.2877 -2.6116 -1.7014 -4.0117 c-0.39533 -1.4002 -0.60186 -2.8251 -0.66924 -4.2361 c-0.027949 -0.71124 -0.010781 -1.4173 0.043887 -2.1171 c-0.67122 -0.12521 -1.2565 -0.35848 -1.6887 -0.729 c-0.53326 -0.43664 -0.85422 -1.0442 -0.84912 -1.7644 c-0.071838 -2.1991 0.31078 -4.3975 1.1078 -6.426 c0.21293 -0.50086 0.42521 -1.0036 0.67182 -1.4873 c0.25295 -0.46775 0.52113 -0.98574 0.79188 -1.3918 c0.54217 -0.85296 1.1141 -1.6106 1.7014 -2.283 c1.1777 -1.3563 2.3986 -2.4241 3.598 -3.3387 c0.52055 -0.40043 1.3894 -1.022 2.1921 -1.4891 c0.81612 -0.48111 1.6589 -0.88536 2.5131 -1.2356 c3.4295 -1.376 7.0452 -1.709 10.549 -1.1326 c1.7523 0.29362 3.4823 0.82938 5.126 1.6252 c0.41121 0.19705 0.81798 0.40295 1.2127 0.64512 c0.39721 0.23326 0.79698 0.47033 1.1529 0.72522 c0.73284 0.50144 1.4148 1.0486 2.0421 1.6258 c2.5258 2.3198 4.21 5.0159 5.3864 7.722 c1.1631 2.7076 1.9029 5.6204 2.0471 8.7096 c0.13096 3.0826 -0.37623 6.3564 -1.8476 9.384 c-0.25295 0.525 -0.53578 1.0252 -0.83196 1.5146 c1.3805 0.5714 2.7311 1.0875 4.0314 1.4981 z M66.568 49.138999999999996 c0.58981 -0.0019336 1.1422 -0.090294 1.7021 -0.21996 c0.4125 -1.1479 2.8569 -4.2113 3.5135 -4.1045 c0.48369 0.18814 0.9597 0.38707 1.4377 0.58412 c0.33176 -0.51229 0.58981 -1.0423 0.75378 -1.5654 c0.33112 -1.0074 0.39785 -2.2372 0.1786 -3.5402 c-0.22564 -1.3061 -0.73662 -2.6917 -1.4726 -3.9584 c-0.72708 -1.2584 -1.6271 -2.2505 -2.459 -2.799 c-0.20654 -0.14174 -0.40928 -0.25553 -0.6069 -0.34453 c-0.10043 -0.055313 -0.18943 -0.073128 -0.27463 -0.10617 c-0.0801 -0.038789 -0.17543 -0.059765 -0.26888 -0.083262 c-0.36862 -0.10108 -0.78234 -0.1589 -1.2126 -0.15826 c-0.85926 -0.0050977 -1.7789 0.24656 -2.384 0.65592 c-0.14871 0.1036 -0.28729 0.20402 -0.40231 0.31271 c-0.1265 0.12269 -0.14684 0.15703 -0.47162 0.46213 c-0.50021 0.48492 -0.879 0.9489 -1.0907 1.3036 c-0.1125 0.17795 -0.17098 0.32795 -0.19511 0.41947 c-0.029238 0.057188 0.022265 0.048281 0.01207 0.064158 c0.0089064 0.01207 0.032402 0.027949 0.029883 0.033047 c0.050215 0.042598 0.11314 0.062928 0.17227 0.059121 c0.032402 -0.003164 -0.20531 0.01084 -0.6375 0.10365 c-0.44871 0.089004 -1.0805 0.2676 -1.8286 0.51803 c-1.069 0.34576 -2.3904 0.84024 -3.7943 1.3258 c-0.19324 1.7974 0.012656 3.5853 0.65586 5.0948 c1.1173 2.7514 3.8204 5.0014 6.6042 5.6858 c0.69216 0.17162 1.3786 0.24662 2.0389 0.2574 z M135.299 53.8674 c3.3228 0.25612 3.4884 5.3723 -0.1064 5.7104 c-2.5925 0.10295 -5.1818 0.11883 -7.752 0.090882 l-3.8408 -0.064218 l-1.908 -0.043242 l-2.7184 -0.10805 c-3.6838 -0.15574 -7.5486 -0.21803 -11.791 -0.13793 c-4.2075 0.057188 -8.6736 0.14742 -13.041 0.27961 c0.015235 -0.040664 0.007617 -0.071778 0.041953 -0.1207 l0.1449 -0.16523 l0.29045 -0.33176 l0.58348 -0.66672 l1.1784 -1.3455 l2.4342 -2.7908 l5.0617 -5.8333 c1.6995 -1.9798 3.3577 -3.9851 4.9835 -6.039 l2.4413 -3.1232 l0.30697 -0.39533 l0.25166 -0.33112 l0.35402 -0.48305 l0.70872 -0.96666 l0.35654 -0.48621 c0.0801 -0.10612 0.057246 -0.088302 0.083322 -0.12832 l0.045117 -0.081972 l0.17227 -0.3184 l0.30761 -0.58852 c0.18879 -0.37119 0.34511 -0.69912 0.46969 -0.98448 c0.24727 -0.56947 0.37629 -0.96798 0.35596 -1.1942 c-1.357 0.29936 -2.3205 0.53959 -2.888 0.79068 c-0.14174 0.062286 -0.25869 0.12521 -0.3515 0.18814 c-0.046406 0.031172 -0.086424 0.062928 -0.12011 0.094686 c-0.0089064 0.007617 -0.01336 0.015879 -0.019688 0.023496 l-0.008262 0.01207 c-0.0063282 0.0019336 0.0095508 0.0038672 -0.015879 0.0058008 l-0.099786 0.0057422 l-0.79254 0.046406 c-2.1082 0.12709 -4.1776 0.27773 -6.2028 0.48428 c-2.3129 0.41883 -3.4684 -17.018 -0.63684 -16.831 c2.3211 0.0375 4.6022 0.1411 6.843 0.26883 l0.83832 0.04957 l1.4872 0.055313 l3.1391 0.1265 c2.084 0.080742 4.1306 0.17479 6.1938 0.22248 c4.0842 0.12709 8.382 0.0069726 12.596 -0.040078 l12.091 -0.15955 l-13.618 13.617 l-3.174 3.2402 c-1.0296 1.0659 -1.9792 2.1114 -2.958 3.1525 l-5.2098 5.7761 l-1.2337 1.3252 l-0.095334 0.10108 l-0.036211 0.029883 l-0.07752 0.065448 l-0.65022 0.56057 l-1.4701 1.2934 l-1.7097 1.5101 l-0.94956 0.8313 l-0.50021 0.43348 l-0.25553 0.22184 l-0.12902 0.1125 l-0.064806 0.056543 c-0.007617 0.01336 0.026074 0.008262 0.036856 0.01336 c1.6531 0.25489 3.8369 0.68958 6.5484 1.2133 l1.0652 0.19892 l1.8749 0.26379 l3.7283 0.50209 c2.4781 0.31904 4.9441 0.59297 7.4112 0.78492 z"/></g><g id="SvgjsG2190" featureKey="nameFeature-0" transform="matrix(1.2614756489445853,0,0,1.2614756489445853,132.981104031319,-1.1366996423900542)" fill="#000"><path d="M23.01 20.688 c0 1.9432 -0.65408 3.8078 -1.8158 5.3116 c1.162 1.504 1.8161 3.3685 1.8161 5.3116 c0 4.7908 -3.8974 8.6884 -8.6884 8.6884 l-2.2625 0 c-0.58252 0 -1.1411 -0.23141 -1.5529 -0.64316 l-8.2628 -8.2628 c-0.85784 -0.85756 -0.85756 -2.248 0 -3.1056 s2.248 -0.85756 3.1056 0 l7.6196 7.6196 l1.3528 0 c2.3688 0 4.296 -1.9274 4.296 -4.296 c0 -1.3956 -0.6838 -2.7096 -1.829 -3.5156 c-0.58468 -0.4112 -0.93252 -1.0813 -0.93252 -1.7961 s0.34781 -1.3849 0.93252 -1.7961 c1.1452 -0.80568 1.829 -2.12 1.829 -3.5156 c0 -2.3688 -1.9274 -4.296 -4.296 -4.296 l-8.3289 0 l0 3.9768 l7.6192 7.6196 c0.85784 0.85756 0.85784 2.248 0 3.1056 c-0.85756 0.85784 -2.248 0.85784 -3.1056 0 l-8.2628 -8.2628 c-0.41176 -0.41176 -0.64316 -0.9704 -0.64316 -1.5529 l0 -7.0824 c0 -1.2128 0.98328 -2.196 2.196 -2.196 l10.525 0 c4.7908 0 8.6884 3.8974 8.6884 8.6884 z M43.056 19.412 c1.2128 0 2.196 0.98328 2.196 2.196 l0 16.196 c0 1.2128 -0.98328 2.196 -2.196 2.196 c-1.1071 0 -2.0201 -0.81968 -2.1716 -1.885 c-1.677 1.1856 -3.721 1.885 -5.9264 1.885 c-5.6764 0 -10.294 -4.6176 -10.294 -10.294 s4.6176 -10.294 10.294 -10.294 c2.2054 0 4.2492 0.69944 5.9264 1.885 c0.15152 -1.0654 1.0645 -1.885 2.1716 -1.885 z M34.958 35.608 c3.2543 0 5.902 -2.6476 5.902 -5.902 s-2.6476 -5.902 -5.902 -5.902 s-5.902 2.6476 -5.902 5.902 s2.6476 5.902 5.902 5.902 z M57.222 19.412 c1.2128 0 2.196 0.98328 2.196 2.196 s-0.98328 2.196 -2.196 2.196 c-3.2543 0 -5.902 2.6476 -5.902 5.902 l0 8.098 c0 1.2128 -0.98328 2.196 -2.196 2.196 s-2.196 -0.98328 -2.196 -2.196 l0 -16.196 c0 -1.2128 0.98328 -2.196 2.196 -2.196 c1.1071 0 2.0201 0.81996 2.1716 1.885 c1.677 -1.1856 3.721 -1.885 5.9264 -1.885 z M75.015 27.509999999999998 c3.4434 0 6.2452 2.8016 6.2452 6.2452 s-2.8016 6.2452 -6.2452 6.2452 l-8.098 0 c-1.2128 0 -2.196 -0.98328 -2.196 -2.196 s0.98328 -2.196 2.196 -2.196 l8.098 0 c1.0217 0 1.8529 -0.8312 1.8529 -1.8529 s-0.8312 -1.8529 -1.8529 -1.8529 l-8.098 0 c-3.4434 0 -6.2452 -2.8016 -6.2452 -6.2452 s2.8016 -6.2452 6.2452 -6.2452 l8.098 0 c1.2128 0 2.196 0.98328 2.196 2.196 s-0.98328 2.196 -2.196 2.196 l-8.098 0 c-1.0217 0 -1.8529 0.8312 -1.8529 1.8529 s0.8312 1.8529 1.8529 1.8529 l8.098 0 z M102.81 36.251 c0.85756 0.85756 0.85756 2.2482 -0.00027344 3.1055 c-0.4288 0.4288 -0.99096 0.64316 -1.5529 0.64316 c-0.5622 0 -1.1241 -0.21438 -1.5529 -0.64316 l-1.0363 -1.0363 c-1.6355 1.0607 -3.5829 1.6794 -5.6732 1.6794 c-5.7668 0 -10.459 -4.692 -10.459 -10.459 l0 -7.0824 c0 -5.7668 4.692 -10.459 10.459 -10.459 s10.459 4.692 10.459 10.459 l0 7.0824 c0 2.0904 -0.61876 4.038 -1.6794 5.6736 z M92.995 35.6076 c0.86964 0 1.6961 -0.18524 2.4447 -0.51628 l-3.9974 -3.9976 c-0.85756 -0.85756 -0.85756 -2.248 0 -3.1056 c0.85812 -0.85756 2.2485 -0.85756 3.1058 0 l3.9974 3.9974 c0.33078 -0.74832 0.51608 -1.5749 0.51608 -2.4445 l0 -7.0824 c0 -3.3452 -2.7215 -6.0668 -6.0668 -6.0668 s-6.0668 2.7215 -6.0668 6.0668 l0 7.0824 c0 3.3452 2.7215 6.0668 6.0668 6.0668 z M123.51200000000001 19.412 c1.2128 0 2.196 0.98328 2.196 2.196 l0 8.098 c0 5.6764 -4.6176 10.294 -10.294 10.294 s-10.294 -4.6176 -10.294 -10.294 l0 -8.098 c0 -1.2128 0.98328 -2.196 2.196 -2.196 s2.196 0.98328 2.196 2.196 l0 8.098 c0 3.2543 2.6476 5.902 5.902 5.902 s5.902 -2.6476 5.902 -5.902 l0 -8.098 c0 -1.2128 0.98328 -2.196 2.196 -2.196 z M129.58 19.412 c1.2128 0 2.196 0.98328 2.196 2.196 l0 16.196 c0 1.2128 -0.98328 2.196 -2.196 2.196 s-2.196 -0.98328 -2.196 -2.196 l0 -16.196 c0 -1.2128 0.98328 -2.196 2.196 -2.196 z M127.5514 15.036000000000001 c-0.054884 -0.13176 -0.096056 -0.2718 -0.12352 -0.4118 c-0.030195 -0.14 -0.043908 -0.28551 -0.043908 -0.42824 s0.013711 -0.28824 0.043908 -0.42824 c0.027461 -0.14 0.068632 -0.28 0.12352 -0.41176 s0.12352 -0.26078 0.20312 -0.37883 c0.079608 -0.12078 0.1702 -0.23332 0.27176 -0.33488 s0.2141 -0.19215 0.33488 -0.27176 c0.11805 -0.079608 0.24707 -0.14824 0.37883 -0.20312 s0.27176 -0.096056 0.41176 -0.12352 c0.71372 -0.14551 1.4714 0.090588 1.982 0.59844 c0.098828 0.10156 0.19215 0.2141 0.27176 0.33488 c0.079608 0.11805 0.14824 0.24707 0.20312 0.37883 s0.096056 0.27176 0.12352 0.41176 c0.030195 0.14 0.043908 0.28551 0.043908 0.42824 s-0.013711 0.28824 -0.043908 0.42824 c-0.027461 0.14 -0.068632 0.28 -0.12352 0.41176 s-0.12352 0.26078 -0.20312 0.37883 c-0.079608 0.12078 -0.17293 0.23332 -0.27176 0.33488 c-0.10156 0.10156 -0.2141 0.19215 -0.33488 0.27176 c-0.11805 0.079608 -0.24707 0.14824 -0.37883 0.20312 s-0.27176 0.096056 -0.41176 0.12352 c-0.14 0.030195 -0.28551 0.043908 -0.42824 0.043908 s-0.28824 -0.013711 -0.42824 -0.043908 c-0.14 -0.027461 -0.28 -0.068632 -0.41176 -0.12352 s-0.26078 -0.12352 -0.37883 -0.20312 c-0.12078 -0.079608 -0.23332 -0.1702 -0.33488 -0.27176 s-0.19215 -0.2141 -0.27176 -0.33488 c-0.079608 -0.11805 -0.14824 -0.24707 -0.20312 -0.37883 z M151.88 35.608 c1.2128 0 2.196 0.98328 2.196 2.196 s-0.98328 2.196 -2.196 2.196 l-16.196 0 c-0.88804 0 -1.6885 -0.53528 -2.0286 -1.3558 s-0.15234 -1.7651 0.47576 -2.3932 l12.447 -12.447 l-10.894 0 c-1.2128 0 -2.196 -0.98328 -2.196 -2.196 s0.98328 -2.196 2.196 -2.196 l16.196 0 c0.88804 0 1.6885 0.53528 2.0286 1.3558 s0.15234 1.7651 -0.47576 2.3932 l-12.447 12.447 l10.894 0 z M157.948 12 c1.2128 0 2.196 0.98328 2.196 2.196 l0 16.196 c0 1.2128 -0.98328 2.196 -2.196 2.196 s-2.196 -0.98328 -2.196 -2.196 l0 -16.196 c0 -1.2128 0.98328 -2.196 2.196 -2.196 z M159.97680000000003 36.964 c0.054884 0.13176 0.096172 0.2718 0.12418 0.4118 c0.030195 0.14 0.043908 0.28551 0.043908 0.42824 c0 0.5792 -0.23359 1.1447 -0.64536 1.5537 c-0.098556 0.10156 -0.21137 0.19215 -0.33215 0.27176 c-0.11805 0.079608 -0.24707 0.14824 -0.37883 0.20312 c-0.13148 0.054884 -0.27176 0.096056 -0.41176 0.12352 c-0.14 0.030195 -0.28551 0.043908 -0.42824 0.043908 c-0.14301 0 -0.28824 -0.013711 -0.42852 -0.043908 c-0.14 -0.027461 -0.28 -0.068632 -0.41176 -0.12352 s-0.26051 -0.12352 -0.37883 -0.20312 c-0.12078 -0.079608 -0.23332 -0.1702 -0.33488 -0.27176 c-0.40904 -0.40904 -0.64236 -0.97452 -0.64236 -1.5538 c0 -0.14274 0.013711 -0.28824 0.04418 -0.42824 c0.027188 -0.14 0.068632 -0.28 0.12324 -0.41176 c0.054884 -0.13176 0.12352 -0.26078 0.20312 -0.37883 c0.079608 -0.12078 0.1702 -0.23332 0.27176 -0.33488 s0.21438 -0.19215 0.33488 -0.27176 c0.11832 -0.079608 0.24734 -0.14824 0.37883 -0.20312 c0.13176 -0.054884 0.27176 -0.096056 0.41176 -0.12352 c0.28274 -0.057656 0.574 -0.057656 0.85644 0 c0.14 0.027461 0.28027 0.068632 0.41176 0.12352 c0.13203 0.054884 0.26078 0.12352 0.37883 0.20312 c0.12078 0.079608 0.23359 0.1702 0.33215 0.27176 c0.10156 0.10156 0.19488 0.2141 0.27449 0.33488 c0.079608 0.11805 0.14824 0.24707 0.20312 0.37883 z"/></g>
			</g>
		</svg>
	